<svg xmlns="http://www.w3.org/2000/svg" style="display:none">
  <!-- FITKIT icon system · grid 24 · stroke 2 · round caps/joins · color via currentColor -->

  <symbol id="ic-dumbbell" viewBox="0 0 24 24" fill="none" stroke="currentColor" stroke-width="2" stroke-linecap="round" stroke-linejoin="round">
    <path d="M3 9v6M6 7v10M18 7v10M21 9v6M6 12h12"/>
  </symbol>

  <symbol id="ic-barbell" viewBox="0 0 24 24" fill="none" stroke="currentColor" stroke-width="2" stroke-linecap="round" stroke-linejoin="round">
    <path d="M2 12h2M21 12h1M4 9v6M7 8v8M17 8v8M20 9v6M7 12h10"/>
  </symbol>

  <symbol id="ic-fork" viewBox="0 0 24 24" fill="none" stroke="currentColor" stroke-width="2" stroke-linecap="round" stroke-linejoin="round">
    <path d="M7 3v5a2 2 0 0 0 4 0V3M9 8v13M16 3c1.8 1.5 1.8 6.5 0 8M16 11v10"/>
  </symbol>

  <symbol id="ic-flame" viewBox="0 0 24 24" fill="none" stroke="currentColor" stroke-width="2" stroke-linecap="round" stroke-linejoin="round">
    <path d="M12 22a6 6 0 0 0 6-6c0-3.6-2.6-5.9-3.9-8.9-.3-.7-1.1-.6-1.4 0-.8 1.7-1.8 2.7-3 3.9C8.4 12.2 6 13 6 16a6 6 0 0 0 6 6z"/>
    <path d="M12 22a2.6 2.6 0 0 0 2.6-2.6c0-1.6-1.2-2.4-1.9-3.9-.8 1.1-1.5 1.7-2.1 2.4-.5.6-1.2 1.1-1.2 1.5A2.6 2.6 0 0 0 12 22z" fill="currentColor" stroke="none"/>
  </symbol>

  <symbol id="ic-calendar" viewBox="0 0 24 24" fill="none" stroke="currentColor" stroke-width="2" stroke-linecap="round" stroke-linejoin="round">
    <rect x="4" y="5" width="16" height="15" rx="2"/>
    <path d="M4 9h16M8 3v4M16 3v4"/>
  </symbol>

  <symbol id="ic-clock" viewBox="0 0 24 24" fill="none" stroke="currentColor" stroke-width="2" stroke-linecap="round" stroke-linejoin="round">
    <circle cx="12" cy="12" r="8"/>
    <path d="M12 8v4l3 2"/>
  </symbol>

  <symbol id="ic-moon" viewBox="0 0 24 24" fill="none" stroke="currentColor" stroke-width="2" stroke-linecap="round" stroke-linejoin="round">
    <path d="M20 14a7 7 0 1 1-8-9 6 6 0 0 0 8 9z"/>
  </symbol>

  <symbol id="ic-drop" viewBox="0 0 24 24" fill="none" stroke="currentColor" stroke-width="2" stroke-linecap="round" stroke-linejoin="round">
    <path d="M12 3c3.5 4.5 6 6.8 6 10a6 6 0 0 1-12 0c0-3.2 2.5-5.5 6-10z"/>
  </symbol>

  <symbol id="ic-bolt" viewBox="0 0 24 24" fill="none" stroke="currentColor" stroke-width="2" stroke-linecap="round" stroke-linejoin="round">
    <path d="M13 3 5 13h6l-1 8 8-11h-6z"/>
  </symbol>

  <symbol id="ic-trend" viewBox="0 0 24 24" fill="none" stroke="currentColor" stroke-width="2" stroke-linecap="round" stroke-linejoin="round">
    <path d="M3 17l6-6 4 4 8-8M17 7h4v4"/>
  </symbol>

  <symbol id="ic-scale" viewBox="0 0 24 24" fill="none" stroke="currentColor" stroke-width="2" stroke-linecap="round" stroke-linejoin="round">
    <rect x="4" y="4" width="16" height="16" rx="3"/>
    <path d="M9 8h6M12 8v2.5"/>
  </symbol>

  <symbol id="ic-pulse" viewBox="0 0 24 24" fill="none" stroke="currentColor" stroke-width="2" stroke-linecap="round" stroke-linejoin="round">
    <path d="M3 12h4l2-4 3 8 2-4h7"/>
  </symbol>

  <symbol id="ic-check" viewBox="0 0 24 24" fill="none" stroke="currentColor" stroke-width="2" stroke-linecap="round" stroke-linejoin="round">
    <circle cx="12" cy="12" r="8"/>
    <path d="M8.5 12l2.4 2.4 5-5"/>
  </symbol>

  <symbol id="ic-capsule" viewBox="0 0 24 24" fill="none" stroke="currentColor" stroke-width="2" stroke-linecap="round" stroke-linejoin="round">
    <rect x="3" y="9" width="18" height="6" rx="3" transform="rotate(45 12 12)"/>
    <path d="M9.2 9.2l5.6 5.6"/>
  </symbol>

  <symbol id="ic-home" viewBox="0 0 24 24" fill="none" stroke="currentColor" stroke-width="2" stroke-linecap="round" stroke-linejoin="round">
    <path d="M4 11l8-7 8 7M6 10v9h12v-9"/>
  </symbol>

  <symbol id="ic-wallet" viewBox="0 0 24 24" fill="none" stroke="currentColor" stroke-width="2" stroke-linecap="round" stroke-linejoin="round">
    <rect x="3" y="6" width="18" height="13" rx="2"/>
    <path d="M3 10h18M16.5 13h1.5"/>
  </symbol>

  <symbol id="ic-brain" viewBox="0 0 24 24" fill="none" stroke="currentColor" stroke-width="2" stroke-linecap="round" stroke-linejoin="round">
    <path d="M12 6a3 3 0 0 0-5.8-1A2.5 2.5 0 0 0 4 7.5 2.5 2.5 0 0 0 4 12a2.5 2.5 0 0 0 2 4 2.5 2.5 0 0 0 4 1M12 6a3 3 0 0 1 5.8-1A2.5 2.5 0 0 1 20 7.5 2.5 2.5 0 0 1 20 12a2.5 2.5 0 0 1-2 4 2.5 2.5 0 0 1-4 1M12 6v12"/>
  </symbol>

  <symbol id="ic-trophy" viewBox="0 0 24 24" fill="none" stroke="currentColor" stroke-width="2" stroke-linecap="round" stroke-linejoin="round">
    <path d="M8 4h8v4a4 4 0 0 1-8 0zM6 5H4v1.5A3 3 0 0 0 7 10M18 5h2v1.5A3 3 0 0 1 17 10M10 13h4M9 20h6M12 13v3"/>
  </symbol>

  <symbol id="ic-shaker" viewBox="0 0 24 24" fill="none" stroke="currentColor" stroke-width="2" stroke-linecap="round" stroke-linejoin="round">
    <path d="M8 3h8l-1 4 1 1v11a2 2 0 0 1-2 2H10a2 2 0 0 1-2-2V8l1-1zM8 11h8"/>
  </symbol>

  <symbol id="ic-apple" viewBox="0 0 24 24" fill="none" stroke="currentColor" stroke-width="2" stroke-linecap="round" stroke-linejoin="round">
    <path d="M12 7c-1.5-1.5-5-1.5-6 1.5s.5 9 3 11c1 .8 2 .8 3 0 1 .8 2 .8 3 0 2.5-2 4-8 3-11s-4.5-3-6-1.5zM12 7c0-2 1-3 3-3.5"/>
  </symbol>
</svg>
